<svg width="13" height="21" viewBox="0 0 13 21" fill="none" xmlns="http://www.w3.org/2000/svg">
<rect width="13" height="21" fill="#E5E5E5"/>
<g id="Design" clip-path="url(#clip0)">
<rect width="1440" height="3220" transform="translate(-716 -2457)" fill="white"/>
<g id="Trade securely">
<rect width="1440" height="1490" transform="translate(-714 -1299)" fill="url(#paint0_linear)"/>
<g id="Cryptocurrencies">
<g id="ETH">
<g id="Base" style="mix-blend-mode:overlay" filter="url(#filter0_d)">
<rect x="-179" y="-342" width="370" height="433" rx="16" fill="white"/>
</g>
<g id="Arrow Right">
<circle id="Ellipse 8" cx="6" cy="11" r="31" stroke="#2B076E" stroke-opacity="0.2" stroke-width="2"/>
<g id="eva:chevron-right-outline">
<path id="Vector" d="M2.99994 21.0002C2.73673 21.0017 2.4758 20.9512 2.23213 20.8517C1.98845 20.7522 1.76682 20.6055 1.57994 20.4202C1.39248 20.2342 1.24369 20.013 1.14216 19.7693C1.04062 19.5256 0.988342 19.2642 0.988342 19.0002C0.988342 18.7361 1.04062 18.4747 1.14216 18.231C1.24369 17.9873 1.39248 17.7661 1.57994 17.5802L8.19994 11.0002L1.83994 4.38016C1.46744 4.00544 1.25835 3.49853 1.25835 2.97016C1.25835 2.44179 1.46744 1.93489 1.83994 1.56016C2.02587 1.37271 2.24707 1.22392 2.49079 1.12238C2.7345 1.02084 2.99592 0.968567 3.25994 0.968567C3.52396 0.968567 3.78537 1.02084 4.02909 1.12238C4.27281 1.22392 4.49401 1.37271 4.67994 1.56016L12.3999 9.56016C12.7664 9.93402 12.9717 10.4367 12.9717 10.9602C12.9717 11.4837 12.7664 11.9863 12.3999 12.3602L4.39994 20.3602C4.22042 20.554 4.00427 20.7104 3.76398 20.8203C3.52368 20.9301 3.264 20.9912 2.99994 21.0002Z" fill="#3671E9"/>
</g>
</g>
</g>
</g>
</g>
</g>
<defs>
<filter id="filter0_d" x="-219" y="-342" width="450" height="513" filterUnits="userSpaceOnUse" color-interpolation-filters="sRGB">
<feFlood flood-opacity="0" result="BackgroundImageFix"/>
<feColorMatrix in="SourceAlpha" type="matrix" values="0 0 0 0 0 0 0 0 0 0 0 0 0 0 0 0 0 0 127 0" result="hardAlpha"/>
<feOffset dy="40"/>
<feGaussianBlur stdDeviation="20"/>
<feColorMatrix type="matrix" values="0 0 0 0 0.223529 0 0 0 0 0.0901961 0 0 0 0 0.466667 0 0 0 1 0"/>
<feBlend mode="normal" in2="BackgroundImageFix" result="effect1_dropShadow"/>
<feBlend mode="normal" in="SourceGraphic" in2="effect1_dropShadow" result="shape"/>
</filter>
<linearGradient id="paint0_linear" x1="720" y1="0" x2="720" y2="1490" gradientUnits="userSpaceOnUse">
<stop stop-color="#F8F9FB"/>
<stop offset="1" stop-color="#FAFBFF"/>
</linearGradient>
<clipPath id="clip0">
<rect width="1440" height="3220" fill="white" transform="translate(-716 -2457)"/>
</clipPath>
</defs>
</svg>
